<svg width="20" height="24" viewBox="0 0 14 18" fill="none" xmlns="http://www.w3.org/2000/svg">
<path fill-rule="evenodd" clip-rule="evenodd" d="M0.25 17.4375V2.25C0.25 1.65326 0.487053 1.08097 0.90901 0.65901C1.33097 0.237053 1.90326 0 2.5 0L11.5 0C12.0967 0 12.669 0.237053 13.091 0.65901C13.5129 1.08097 13.75 1.65326 13.75 2.25V17.4375C13.7501 17.5352 13.7247 17.6312 13.6764 17.7161C13.6281 17.801 13.5585 17.8718 13.4745 17.9217C13.3905 17.9715 13.2949 17.9986 13.1973 18.0003C13.0996 18.002 13.0032 17.9783 12.9175 17.9314L7 14.7026L1.0825 17.9314C0.996808 17.9783 0.900384 18.002 0.802718 18.0003C0.705053 17.9986 0.609513 17.9715 0.525503 17.9217C0.441494 17.8718 0.37191 17.801 0.323603 17.7161C0.275295 17.6312 0.249929 17.5352 0.25 17.4375ZM10.2108 6.58575C10.3164 6.48013 10.3757 6.33687 10.3757 6.1875C10.3757 6.03813 10.3164 5.89487 10.2108 5.78925C10.1051 5.68363 9.96187 5.62429 9.8125 5.62429C9.66313 5.62429 9.51987 5.68363 9.41425 5.78925L6.4375 8.76713L5.14825 7.47675C5.09595 7.42445 5.03386 7.38297 4.96553 7.35466C4.8972 7.32636 4.82396 7.31179 4.75 7.31179C4.67604 7.31179 4.6028 7.32636 4.53447 7.35466C4.46614 7.38297 4.40405 7.42445 4.35175 7.47675C4.29945 7.52905 4.25797 7.59114 4.22966 7.65947C4.20136 7.7278 4.18679 7.80104 4.18679 7.875C4.18679 7.94896 4.20136 8.0222 4.22966 8.09053C4.25797 8.15886 4.29945 8.22095 4.35175 8.27325L6.03925 9.96075C6.0915 10.0131 6.15357 10.0547 6.22191 10.0831C6.29025 10.1114 6.36351 10.126 6.4375 10.126C6.51149 10.126 6.58475 10.1114 6.65309 10.0831C6.72143 10.0547 6.7835 10.0131 6.83575 9.96075L10.2108 6.58575Z" fill="#242A32"/>
</svg>
