<svg width="18" height="22" viewBox="0 0 18 22" fill="none" xmlns="http://www.w3.org/2000/svg">
<path d="M0.75 2.75V21.3125C0.749913 21.4319 0.780916 21.5492 0.839959 21.653C0.899001 21.7568 0.984048 21.8434 1.08673 21.9043C1.1894 21.9652 1.30618 21.9983 1.42554 22.0004C1.54491 22.0025 1.66277 21.9734 1.7675 21.9161L9 17.9699L16.2325 21.9161C16.3372 21.9734 16.4551 22.0025 16.5745 22.0004C16.6938 21.9983 16.8106 21.9652 16.9133 21.9043C17.016 21.8434 17.101 21.7568 17.16 21.653C17.2191 21.5492 17.2501 21.4319 17.25 21.3125V2.75C17.25 2.02065 16.9603 1.32118 16.4445 0.805456C15.9288 0.289731 15.2293 0 14.5 0L3.5 0C2.77065 0 2.07118 0.289731 1.55546 0.805456C1.03973 1.32118 0.75 2.02065 0.75 2.75Z" fill="#242A32"/>
</svg>
