<svg width="18" height="24" viewBox="0 0 18 24" fill="none" xmlns="http://www.w3.org/2000/svg">
<path fill-rule="evenodd" clip-rule="evenodd" d="M2.00803e-07 23.25V3C2.00803e-07 2.20435 0.316071 1.44129 0.87868 0.87868C1.44129 0.316071 2.20435 0 3 0L15 0C15.7956 0 16.5587 0.316071 17.1213 0.87868C17.6839 1.44129 18 2.20435 18 3V23.25C18.0001 23.3802 17.9663 23.5083 17.9019 23.6215C17.8375 23.7347 17.7447 23.8291 17.6327 23.8956C17.5207 23.962 17.3933 23.9982 17.263 24.0004C17.1328 24.0027 17.0043 23.971 16.89 23.9085L9 19.6035L1.11 23.9085C0.995744 23.971 0.867178 24.0027 0.736957 24.0004C0.606737 23.9982 0.47935 23.962 0.367338 23.8956C0.255325 23.8291 0.162547 23.7347 0.0981369 23.6215C0.0337268 23.5083 -9.50907e-05 23.3802 2.00803e-07 23.25ZM13.281 8.781C13.4218 8.64017 13.5009 8.44916 13.5009 8.25C13.5009 8.05084 13.4218 7.85983 13.281 7.719C13.1402 7.57817 12.9492 7.49905 12.75 7.49905C12.5508 7.49905 12.3598 7.57817 12.219 7.719L8.25 11.6895L6.531 9.969C6.46127 9.89927 6.37848 9.84395 6.28738 9.80622C6.19627 9.76848 6.09862 9.74905 6 9.74905C5.90138 9.74905 5.80373 9.76848 5.71263 9.80622C5.62152 9.84395 5.53873 9.89927 5.469 9.969C5.39927 10.0387 5.34395 10.1215 5.30622 10.2126C5.26848 10.3037 5.24905 10.4014 5.24905 10.5C5.24905 10.5986 5.26848 10.6963 5.30622 10.7874C5.34395 10.8785 5.39927 10.9613 5.469 11.031L7.719 13.281C7.78867 13.3508 7.87143 13.4063 7.96255 13.4441C8.05367 13.4819 8.15135 13.5013 8.25 13.5013C8.34865 13.5013 8.44633 13.4819 8.53745 13.4441C8.62857 13.4063 8.71133 13.3508 8.781 13.281L13.281 8.781Z" fill="#4FCCA3"/>
</svg>
