<svg width="20" height="24" viewBox="0 0 14 18" fill="none" xmlns="http://www.w3.org/2000/svg">
<path d="M0.25 2.25V17.4375C0.249929 17.5352 0.275295 17.6312 0.323603 17.7161C0.37191 17.801 0.441494 17.8718 0.525503 17.9217C0.609513 17.9715 0.705053 17.9986 0.802718 18.0003C0.900384 18.002 0.996808 17.9783 1.0825 17.9314L7 14.7026L12.9175 17.9314C13.0032 17.9783 13.0996 18.002 13.1973 18.0003C13.2949 17.9986 13.3905 17.9715 13.4745 17.9217C13.5585 17.8718 13.6281 17.801 13.6764 17.7161C13.7247 17.6312 13.7501 17.5352 13.75 17.4375V2.25C13.75 1.65326 13.5129 1.08097 13.091 0.65901C12.669 0.237053 12.0967 0 11.5 0L2.5 0C1.90326 0 1.33097 0.237053 0.90901 0.65901C0.487053 1.08097 0.25 1.65326 0.25 2.25Z" fill="#EEEEEE"/>
</svg>
